<svg xmlns="http://www.w3.org/2000/svg" fill="none" viewBox="0 0 10 10">
  <path fill="currentColor" d="M1.64062 7.47656c0.24408 -0.24408 0.63971 -0.24407 0.88379 0 0.24373 0.24411 0.24396 0.63983 0 0.88379L1.06543 9.81934c-0.243977 0.24386 -0.639725 0.24366 -0.883789 0 -0.2440815 -0.24408 -0.2440746 -0.64069 0 -0.88477zM4.99121 -0.00195312c0.34518 0 0.625 0.27982212 0.625 0.62500012v0.484373c0 1.80452 1.46322 3.26751 3.26758 3.26758h0.47656c0.3449 0.00026 0.62491 0.28007 0.625 0.625 0 0.34502 -0.28004 0.62474 -0.625 0.625h-0.47656c-1.80443 0.00007 -3.26758 1.46313 -3.26758 3.26758v0.48437c-0.00009 0.3451 -0.27988 0.62505 -0.625 0.62505 -0.34494 -0.0003 -0.62491 -0.28008 -0.625 -0.62505V9c0 -1.86396 -1.51104 -3.375 -3.374999 -3.375H0.623047C0.278043 5.62485 -0.00188937 5.34504 -0.00195312 5c7.8e-7 -0.30191 0.21435112 -0.55391 0.49902312 -0.6123l0.125977 -0.0127h0.476563c1.80434 -0.00018 3.2666 -1.4632 3.2666 -3.26758V0.623047c0 -0.345049 0.28 -0.62479148 0.625 -0.62500012M7.47559 7.47656c0.24408 -0.24407 0.63971 -0.24408 0.88379 0l1.45898 1.45801c0.24404 0.24408 0.24404 0.64069 0 0.88477 -0.24406 0.24366 -0.63981 0.24386 -0.88379 0L7.47559 8.36035c-0.24396 -0.24396 -0.24373 -0.63968 0 -0.88379M0.181641 0.181641c0.244089 -0.2439776 0.639747 -0.2440491 0.883789 0L2.52441 1.64062c0.24386 0.24406 0.2439 0.63977 0 0.88379 -0.24402 0.24402 -0.6397 0.2439 -0.88379 0L0.181641 1.06543c-0.2440746 -0.244081 -0.2440815 -0.639715 0 -0.883789m8.752929 0c0.24404 -0.2440495 0.6397 -0.2439785 0.88379 0 0.24404 0.244074 0.24404 0.639708 0 0.883789L8.35938 2.52441c-0.2441 0.2439 -0.63977 0.24402 -0.88379 0 -0.2439 -0.24402 -0.24386 -0.63973 0 -0.88379z" stroke-width="1"></path>
</svg>