<svg xmlns="http://www.w3.org/2000/svg" fill="none" viewBox="0 0 10 10" id="Announcement-Megaphone--Streamline-Micro">
  <desc>
    Announcement Megaphone Streamline Icon: https://streamlinehq.com
  </desc>
  <path stroke="currentColor" stroke-linecap="round" stroke-linejoin="round" d="M7.28379 7.00076 1.3547 8.11553c-0.10136 0.01875 -0.20604 0.00528 -0.29935 -0.03851 -0.093314 -0.04379 -0.170569 -0.11571 -0.220923 -0.20565L0.56762 7.40925C0.515845 7.32082 0.492884 7.21847 0.501924 7.1164c0.009041 -0.10207 0.049634 -0.19879 0.116144 -0.27675l3.928562 -4.5798c0.02567 -0.02935 0.05799 -0.05214 0.09425 -0.06647 0.03627 -0.01433 0.07544 -0.01978 0.11424 -0.01589 0.0388 0.00388 0.07611 0.01698 0.10882 0.03821 0.03271 0.02123 0.05986 0.04997 0.07921 0.08383l2.50242 4.33433c0.02042 0.03365 0.03243 0.07173 0.03499 0.111 0.00256 0.03928 -0.0044 0.07859 -0.02028 0.1146 -0.01588 0.03602 -0.04021 0.06766 -0.07094 0.09226 -0.03072 0.0246 -0.06693 0.04142 -0.10555 0.04904Z" stroke-width="1"></path>
  <path stroke="currentColor" stroke-linecap="round" stroke-linejoin="round" d="M5.12333 7.40479c0.11021 0.38945 0.07311 0.80586 -0.1042 1.16971 -0.17731 0.36384 -0.48241 0.64964 -0.85706 0.80282 -0.37464 0.15318 -0.79258 0.16302 -1.17402 0.02762 -0.38143 -0.13539 -0.69964 -0.40652 -0.89386 -0.76163 -0.11236 -0.19356 -0.18501 -0.40757 -0.2137 -0.62953" stroke-width="1"></path>
  <path stroke="currentColor" stroke-linecap="round" stroke-linejoin="round" d="M6.32208 1.30641 6.50952 0.5" stroke-width="1"></path>
  <path stroke="currentColor" stroke-linecap="round" stroke-linejoin="round" d="M8.69359 5.11431 9.5 5.30176" stroke-width="1"></path>
  <path stroke="currentColor" stroke-linecap="round" stroke-linejoin="round" d="m8.29651 2.71941 0.70276 -0.43767" stroke-width="1"></path>
</svg>