<svg xmlns="http://www.w3.org/2000/svg" fill="none" viewBox="0 0 10 10">
  <path stroke="currentColor" stroke-linecap="round" stroke-linejoin="round" d="M5 9.49787v-0.49769m0 0c0 -2.20914 1.7952 -4 4.00969 -4M5 9.00018C5 6.79104 3.2048 5 0.990306 5m0 0H0.5m0.490306 0C3.2048 5 5 3.20896 5 0.999823m0 -0.49787v0.49787m0 0C5 3.20896 6.7952 5.00018 9.00969 5.00018m0 0H9.5" stroke-width="1"></path>
  <path stroke="currentColor" stroke-linecap="round" stroke-linejoin="round" d="M0.502243 0.502441 2.0015 2.00174" stroke-width="1"></path>
  <path stroke="currentColor" stroke-linecap="round" stroke-linejoin="round" d="M9.49776 0.502441 7.9985 2.00174" stroke-width="1"></path>
  <path stroke="currentColor" stroke-linecap="round" stroke-linejoin="round" d="M0.502243 9.49783 2.0015 7.99854" stroke-width="1"></path>
  <path stroke="currentColor" stroke-linecap="round" stroke-linejoin="round" d="M9.49776 9.49783 7.9985 7.99854" stroke-width="1"></path>
</svg>