<svg xmlns="http://www.w3.org/2000/svg" fill="none" viewBox="0 0 10 10" id="Favorite-Star-1--Streamline-Micro">
  <desc>
    Favorite Star 1 Streamline Icon: https://streamlinehq.com
  </desc>
  <path stroke="currentColor" stroke-linecap="round" stroke-linejoin="round" d="m5.34 0.909 1.1 2.224a0.38 0.38 0 0 0 0.286 0.208l2.45 0.359a0.379 0.379 0 0 1 0.21 0.647L7.61 6.077a0.381 0.381 0 0 0 -0.109 0.336l0.42 2.445a0.379 0.379 0 0 1 -0.552 0.4L5.177 8.1a0.382 0.382 0 0 0 -0.354 0L2.631 9.258a0.379 0.379 0 0 1 -0.55 -0.4l0.42 -2.445a0.381 0.381 0 0 0 -0.11 -0.336L0.615 4.345a0.379 0.379 0 0 1 0.21 -0.645l2.452 -0.357a0.379 0.379 0 0 0 0.286 -0.208L4.66 0.909a0.379 0.379 0 0 1 0.68 0v0Z" stroke-width="1"></path>
</svg>